<svg version="1.1" xmlns="http://www.w3.org/2000/svg" xmlns:xlink="http://www.w3.org/1999/xlink" width="1086.341796875" height="837"><defs/><g><text fill="#eeeeee" stroke="none" font-family="Arial" font-size="24px" font-style="normal" font-weight="normal" text-decoration="none" x="0" y="0">UNREGISTERED</text><text fill="#eeeeee" stroke="none" font-family="Arial" font-size="24px" font-style="normal" font-weight="normal" text-decoration="none" x="0" y="30">UNREGISTERED</text><text fill="#eeeeee" stroke="none" font-family="Arial" font-size="24px" font-style="normal" font-weight="normal" text-decoration="none" x="0" y="60">UNREGISTERED</text><text fill="#eeeeee" stroke="none" font-family="Arial" font-size="24px" font-style="normal" font-weight="normal" text-decoration="none" x="0" y="90">UNREGISTERED</text><text fill="#eeeeee" stroke="none" font-family="Arial" font-size="24px" font-style="normal" font-weight="normal" text-decoration="none" x="0" y="120">UNREGISTERED</text><text fill="#eeeeee" stroke="none" font-family="Arial" font-size="24px" font-style="normal" font-weight="normal" text-decoration="none" x="0" y="150">UNREGISTERED</text><text fill="#eeeeee" stroke="none" font-family="Arial" font-size="24px" font-style="normal" font-weight="normal" text-decoration="none" x="0" y="180">UNREGISTERED</text><text fill="#eeeeee" stroke="none" font-family="Arial" font-size="24px" font-style="normal" font-weight="normal" text-decoration="none" x="0" y="210">UNREGISTERED</text><text fill="#eeeeee" stroke="none" font-family="Arial" font-size="24px" font-style="normal" font-weight="normal" text-decoration="none" x="0" y="240">UNREGISTERED</text><text fill="#eeeeee" stroke="none" font-family="Arial" font-size="24px" font-style="normal" font-weight="normal" text-decoration="none" x="0" y="270">UNREGISTERED</text><text fill="#eeeeee" stroke="none" font-family="Arial" font-size="24px" font-style="normal" font-weight="normal" text-decoration="none" x="0" y="300">UNREGISTERED</text><text fill="#eeeeee" stroke="none" font-family="Arial" font-size="24px" font-style="normal" font-weight="normal" text-decoration="none" x="0" y="330">UNREGISTERED</text><text fill="#eeeeee" stroke="none" font-family="Arial" font-size="24px" font-style="normal" font-weight="normal" text-decoration="none" x="0" y="360">UNREGISTERED</text><text fill="#eeeeee" stroke="none" font-family="Arial" font-size="24px" font-style="normal" font-weight="normal" text-decoration="none" x="0" y="390">UNREGISTERED</text><text fill="#eeeeee" stroke="none" font-family="Arial" font-size="24px" font-style="normal" font-weight="normal" text-decoration="none" x="0" y="420">UNREGISTERED</text><text fill="#eeeeee" stroke="none" font-family="Arial" font-size="24px" font-style="normal" font-weight="normal" text-decoration="none" x="0" y="450">UNREGISTERED</text><text fill="#eeeeee" stroke="none" font-family="Arial" font-size="24px" font-style="normal" font-weight="normal" text-decoration="none" x="0" y="480">UNREGISTERED</text><text fill="#eeeeee" stroke="none" font-family="Arial" font-size="24px" font-style="normal" font-weight="normal" text-decoration="none" x="0" y="510">UNREGISTERED</text><text fill="#eeeeee" stroke="none" font-family="Arial" font-size="24px" font-style="normal" font-weight="normal" text-decoration="none" x="0" y="540">UNREGISTERED</text><text fill="#eeeeee" stroke="none" font-family="Arial" font-size="24px" font-style="normal" font-weight="normal" text-decoration="none" x="0" y="570">UNREGISTERED</text><text fill="#eeeeee" stroke="none" font-family="Arial" font-size="24px" font-style="normal" font-weight="normal" text-decoration="none" x="0" y="600">UNREGISTERED</text><text fill="#eeeeee" stroke="none" font-family="Arial" font-size="24px" font-style="normal" font-weight="normal" text-decoration="none" x="0" y="630">UNREGISTERED</text><text fill="#eeeeee" stroke="none" font-family="Arial" font-size="24px" font-style="normal" font-weight="normal" text-decoration="none" x="0" y="660">UNREGISTERED</text><text fill="#eeeeee" stroke="none" font-family="Arial" font-size="24px" font-style="normal" font-weight="normal" text-decoration="none" x="0" y="690">UNREGISTERED</text><text fill="#eeeeee" stroke="none" font-family="Arial" font-size="24px" font-style="normal" font-weight="normal" text-decoration="none" x="0" y="720">UNREGISTERED</text><text fill="#eeeeee" stroke="none" font-family="Arial" font-size="24px" font-style="normal" font-weight="normal" text-decoration="none" x="0" y="750">UNREGISTERED</text><text fill="#eeeeee" stroke="none" font-family="Arial" font-size="24px" font-style="normal" font-weight="normal" text-decoration="none" x="0" y="780">UNREGISTERED</text><text fill="#eeeeee" stroke="none" font-family="Arial" font-size="24px" font-style="normal" font-weight="normal" text-decoration="none" x="0" y="810">UNREGISTERED</text><text fill="#eeeeee" stroke="none" font-family="Arial" font-size="24px" font-style="normal" font-weight="normal" text-decoration="none" x="200" y="0">UNREGISTERED</text><text fill="#eeeeee" stroke="none" font-family="Arial" font-size="24px" font-style="normal" font-weight="normal" text-decoration="none" x="200" y="30">UNREGISTERED</text><text fill="#eeeeee" stroke="none" font-family="Arial" font-size="24px" font-style="normal" font-weight="normal" text-decoration="none" x="200" y="60">UNREGISTERED</text><text fill="#eeeeee" stroke="none" font-family="Arial" font-size="24px" font-style="normal" font-weight="normal" text-decoration="none" x="200" y="90">UNREGISTERED</text><text fill="#eeeeee" stroke="none" font-family="Arial" font-size="24px" font-style="normal" font-weight="normal" text-decoration="none" x="200" y="120">UNREGISTERED</text><text fill="#eeeeee" stroke="none" font-family="Arial" font-size="24px" font-style="normal" font-weight="normal" text-decoration="none" x="200" y="150">UNREGISTERED</text><text fill="#eeeeee" stroke="none" font-family="Arial" font-size="24px" font-style="normal" font-weight="normal" text-decoration="none" x="200" y="180">UNREGISTERED</text><text fill="#eeeeee" stroke="none" font-family="Arial" font-size="24px" font-style="normal" font-weight="normal" text-decoration="none" x="200" y="210">UNREGISTERED</text><text fill="#eeeeee" stroke="none" font-family="Arial" font-size="24px" font-style="normal" font-weight="normal" text-decoration="none" x="200" y="240">UNREGISTERED</text><text fill="#eeeeee" stroke="none" font-family="Arial" font-size="24px" font-style="normal" font-weight="normal" text-decoration="none" x="200" y="270">UNREGISTERED</text><text fill="#eeeeee" stroke="none" font-family="Arial" font-size="24px" font-style="normal" font-weight="normal" text-decoration="none" x="200" y="300">UNREGISTERED</text><text fill="#eeeeee" stroke="none" font-family="Arial" font-size="24px" font-style="normal" font-weight="normal" text-decoration="none" x="200" y="330">UNREGISTERED</text><text fill="#eeeeee" stroke="none" font-family="Arial" font-size="24px" font-style="normal" font-weight="normal" text-decoration="none" x="200" y="360">UNREGISTERED</text><text fill="#eeeeee" stroke="none" font-family="Arial" font-size="24px" font-style="normal" font-weight="normal" text-decoration="none" x="200" y="390">UNREGISTERED</text><text fill="#eeeeee" stroke="none" font-family="Arial" font-size="24px" font-style="normal" font-weight="normal" text-decoration="none" x="200" y="420">UNREGISTERED</text><text fill="#eeeeee" stroke="none" font-family="Arial" font-size="24px" font-style="normal" font-weight="normal" text-decoration="none" x="200" y="450">UNREGISTERED</text><text fill="#eeeeee" stroke="none" font-family="Arial" font-size="24px" font-style="normal" font-weight="normal" text-decoration="none" x="200" y="480">UNREGISTERED</text><text fill="#eeeeee" stroke="none" font-family="Arial" font-size="24px" font-style="normal" font-weight="normal" text-decoration="none" x="200" y="510">UNREGISTERED</text><text fill="#eeeeee" stroke="none" font-family="Arial" font-size="24px" font-style="normal" font-weight="normal" text-decoration="none" x="200" y="540">UNREGISTERED</text><text fill="#eeeeee" stroke="none" font-family="Arial" font-size="24px" font-style="normal" font-weight="normal" text-decoration="none" x="200" y="570">UNREGISTERED</text><text fill="#eeeeee" stroke="none" font-family="Arial" font-size="24px" font-style="normal" font-weight="normal" text-decoration="none" x="200" y="600">UNREGISTERED</text><text fill="#eeeeee" stroke="none" font-family="Arial" font-size="24px" font-style="normal" font-weight="normal" text-decoration="none" x="200" y="630">UNREGISTERED</text><text fill="#eeeeee" stroke="none" font-family="Arial" font-size="24px" font-style="normal" font-weight="normal" text-decoration="none" x="200" y="660">UNREGISTERED</text><text fill="#eeeeee" stroke="none" font-family="Arial" font-size="24px" font-style="normal" font-weight="normal" text-decoration="none" x="200" y="690">UNREGISTERED</text><text fill="#eeeeee" stroke="none" font-family="Arial" font-size="24px" font-style="normal" font-weight="normal" text-decoration="none" x="200" y="720">UNREGISTERED</text><text fill="#eeeeee" stroke="none" font-family="Arial" font-size="24px" font-style="normal" font-weight="normal" text-decoration="none" x="200" y="750">UNREGISTERED</text><text fill="#eeeeee" stroke="none" font-family="Arial" font-size="24px" font-style="normal" font-weight="normal" text-decoration="none" x="200" y="780">UNREGISTERED</text><text fill="#eeeeee" stroke="none" font-family="Arial" font-size="24px" font-style="normal" font-weight="normal" text-decoration="none" x="200" y="810">UNREGISTERED</text><text fill="#eeeeee" stroke="none" font-family="Arial" font-size="24px" font-style="normal" font-weight="normal" text-decoration="none" x="400" y="0">UNREGISTERED</text><text fill="#eeeeee" stroke="none" font-family="Arial" font-size="24px" font-style="normal" font-weight="normal" text-decoration="none" x="400" y="30">UNREGISTERED</text><text fill="#eeeeee" stroke="none" font-family="Arial" font-size="24px" font-style="normal" font-weight="normal" text-decoration="none" x="400" y="60">UNREGISTERED</text><text fill="#eeeeee" stroke="none" font-family="Arial" font-size="24px" font-style="normal" font-weight="normal" text-decoration="none" x="400" y="90">UNREGISTERED</text><text fill="#eeeeee" stroke="none" font-family="Arial" font-size="24px" font-style="normal" font-weight="normal" text-decoration="none" x="400" y="120">UNREGISTERED</text><text fill="#eeeeee" stroke="none" font-family="Arial" font-size="24px" font-style="normal" font-weight="normal" text-decoration="none" x="400" y="150">UNREGISTERED</text><text fill="#eeeeee" stroke="none" font-family="Arial" font-size="24px" font-style="normal" font-weight="normal" text-decoration="none" x="400" y="180">UNREGISTERED</text><text fill="#eeeeee" stroke="none" font-family="Arial" font-size="24px" font-style="normal" font-weight="normal" text-decoration="none" x="400" y="210">UNREGISTERED</text><text fill="#eeeeee" stroke="none" font-family="Arial" font-size="24px" font-style="normal" font-weight="normal" text-decoration="none" x="400" y="240">UNREGISTERED</text><text fill="#eeeeee" stroke="none" font-family="Arial" font-size="24px" font-style="normal" font-weight="normal" text-decoration="none" x="400" y="270">UNREGISTERED</text><text fill="#eeeeee" stroke="none" font-family="Arial" font-size="24px" font-style="normal" font-weight="normal" text-decoration="none" x="400" y="300">UNREGISTERED</text><text fill="#eeeeee" stroke="none" font-family="Arial" font-size="24px" font-style="normal" font-weight="normal" text-decoration="none" x="400" y="330">UNREGISTERED</text><text fill="#eeeeee" stroke="none" font-family="Arial" font-size="24px" font-style="normal" font-weight="normal" text-decoration="none" x="400" y="360">UNREGISTERED</text><text fill="#eeeeee" stroke="none" font-family="Arial" font-size="24px" font-style="normal" font-weight="normal" text-decoration="none" x="400" y="390">UNREGISTERED</text><text fill="#eeeeee" stroke="none" font-family="Arial" font-size="24px" font-style="normal" font-weight="normal" text-decoration="none" x="400" y="420">UNREGISTERED</text><text fill="#eeeeee" stroke="none" font-family="Arial" font-size="24px" font-style="normal" font-weight="normal" text-decoration="none" x="400" y="450">UNREGISTERED</text><text fill="#eeeeee" stroke="none" font-family="Arial" font-size="24px" font-style="normal" font-weight="normal" text-decoration="none" x="400" y="480">UNREGISTERED</text><text fill="#eeeeee" stroke="none" font-family="Arial" font-size="24px" font-style="normal" font-weight="normal" text-decoration="none" x="400" y="510">UNREGISTERED</text><text fill="#eeeeee" stroke="none" font-family="Arial" font-size="24px" font-style="normal" font-weight="normal" text-decoration="none" x="400" y="540">UNREGISTERED</text><text fill="#eeeeee" stroke="none" font-family="Arial" font-size="24px" font-style="normal" font-weight="normal" text-decoration="none" x="400" y="570">UNREGISTERED</text><text fill="#eeeeee" stroke="none" font-family="Arial" font-size="24px" font-style="normal" font-weight="normal" text-decoration="none" x="400" y="600">UNREGISTERED</text><text fill="#eeeeee" stroke="none" font-family="Arial" font-size="24px" font-style="normal" font-weight="normal" text-decoration="none" x="400" y="630">UNREGISTERED</text><text fill="#eeeeee" stroke="none" font-family="Arial" font-size="24px" font-style="normal" font-weight="normal" text-decoration="none" x="400" y="660">UNREGISTERED</text><text fill="#eeeeee" stroke="none" font-family="Arial" font-size="24px" font-style="normal" font-weight="normal" text-decoration="none" x="400" y="690">UNREGISTERED</text><text fill="#eeeeee" stroke="none" font-family="Arial" font-size="24px" font-style="normal" font-weight="normal" text-decoration="none" x="400" y="720">UNREGISTERED</text><text fill="#eeeeee" stroke="none" font-family="Arial" font-size="24px" font-style="normal" font-weight="normal" text-decoration="none" x="400" y="750">UNREGISTERED</text><text fill="#eeeeee" stroke="none" font-family="Arial" font-size="24px" font-style="normal" font-weight="normal" text-decoration="none" x="400" y="780">UNREGISTERED</text><text fill="#eeeeee" stroke="none" font-family="Arial" font-size="24px" font-style="normal" font-weight="normal" text-decoration="none" x="400" y="810">UNREGISTERED</text><text fill="#eeeeee" stroke="none" font-family="Arial" font-size="24px" font-style="normal" font-weight="normal" text-decoration="none" x="600" y="0">UNREGISTERED</text><text fill="#eeeeee" stroke="none" font-family="Arial" font-size="24px" font-style="normal" font-weight="normal" text-decoration="none" x="600" y="30">UNREGISTERED</text><text fill="#eeeeee" stroke="none" font-family="Arial" font-size="24px" font-style="normal" font-weight="normal" text-decoration="none" x="600" y="60">UNREGISTERED</text><text fill="#eeeeee" stroke="none" font-family="Arial" font-size="24px" font-style="normal" font-weight="normal" text-decoration="none" x="600" y="90">UNREGISTERED</text><text fill="#eeeeee" stroke="none" font-family="Arial" font-size="24px" font-style="normal" font-weight="normal" text-decoration="none" x="600" y="120">UNREGISTERED</text><text fill="#eeeeee" stroke="none" font-family="Arial" font-size="24px" font-style="normal" font-weight="normal" text-decoration="none" x="600" y="150">UNREGISTERED</text><text fill="#eeeeee" stroke="none" font-family="Arial" font-size="24px" font-style="normal" font-weight="normal" text-decoration="none" x="600" y="180">UNREGISTERED</text><text fill="#eeeeee" stroke="none" font-family="Arial" font-size="24px" font-style="normal" font-weight="normal" text-decoration="none" x="600" y="210">UNREGISTERED</text><text fill="#eeeeee" stroke="none" font-family="Arial" font-size="24px" font-style="normal" font-weight="normal" text-decoration="none" x="600" y="240">UNREGISTERED</text><text fill="#eeeeee" stroke="none" font-family="Arial" font-size="24px" font-style="normal" font-weight="normal" text-decoration="none" x="600" y="270">UNREGISTERED</text><text fill="#eeeeee" stroke="none" font-family="Arial" font-size="24px" font-style="normal" font-weight="normal" text-decoration="none" x="600" y="300">UNREGISTERED</text><text fill="#eeeeee" stroke="none" font-family="Arial" font-size="24px" font-style="normal" font-weight="normal" text-decoration="none" x="600" y="330">UNREGISTERED</text><text fill="#eeeeee" stroke="none" font-family="Arial" font-size="24px" font-style="normal" font-weight="normal" text-decoration="none" x="600" y="360">UNREGISTERED</text><text fill="#eeeeee" stroke="none" font-family="Arial" font-size="24px" font-style="normal" font-weight="normal" text-decoration="none" x="600" y="390">UNREGISTERED</text><text fill="#eeeeee" stroke="none" font-family="Arial" font-size="24px" font-style="normal" font-weight="normal" text-decoration="none" x="600" y="420">UNREGISTERED</text><text fill="#eeeeee" stroke="none" font-family="Arial" font-size="24px" font-style="normal" font-weight="normal" text-decoration="none" x="600" y="450">UNREGISTERED</text><text fill="#eeeeee" stroke="none" font-family="Arial" font-size="24px" font-style="normal" font-weight="normal" text-decoration="none" x="600" y="480">UNREGISTERED</text><text fill="#eeeeee" stroke="none" font-family="Arial" font-size="24px" font-style="normal" font-weight="normal" text-decoration="none" x="600" y="510">UNREGISTERED</text><text fill="#eeeeee" stroke="none" font-family="Arial" font-size="24px" font-style="normal" font-weight="normal" text-decoration="none" x="600" y="540">UNREGISTERED</text><text fill="#eeeeee" stroke="none" font-family="Arial" font-size="24px" font-style="normal" font-weight="normal" text-decoration="none" x="600" y="570">UNREGISTERED</text><text fill="#eeeeee" stroke="none" font-family="Arial" font-size="24px" font-style="normal" font-weight="normal" text-decoration="none" x="600" y="600">UNREGISTERED</text><text fill="#eeeeee" stroke="none" font-family="Arial" font-size="24px" font-style="normal" font-weight="normal" text-decoration="none" x="600" y="630">UNREGISTERED</text><text fill="#eeeeee" stroke="none" font-family="Arial" font-size="24px" font-style="normal" font-weight="normal" text-decoration="none" x="600" y="660">UNREGISTERED</text><text fill="#eeeeee" stroke="none" font-family="Arial" font-size="24px" font-style="normal" font-weight="normal" text-decoration="none" x="600" y="690">UNREGISTERED</text><text fill="#eeeeee" stroke="none" font-family="Arial" font-size="24px" font-style="normal" font-weight="normal" text-decoration="none" x="600" y="720">UNREGISTERED</text><text fill="#eeeeee" stroke="none" font-family="Arial" font-size="24px" font-style="normal" font-weight="normal" text-decoration="none" x="600" y="750">UNREGISTERED</text><text fill="#eeeeee" stroke="none" font-family="Arial" font-size="24px" font-style="normal" font-weight="normal" text-decoration="none" x="600" y="780">UNREGISTERED</text><text fill="#eeeeee" stroke="none" font-family="Arial" font-size="24px" font-style="normal" font-weight="normal" text-decoration="none" x="600" y="810">UNREGISTERED</text><text fill="#eeeeee" stroke="none" font-family="Arial" font-size="24px" font-style="normal" font-weight="normal" text-decoration="none" x="800" y="0">UNREGISTERED</text><text fill="#eeeeee" stroke="none" font-family="Arial" font-size="24px" font-style="normal" font-weight="normal" text-decoration="none" x="800" y="30">UNREGISTERED</text><text fill="#eeeeee" stroke="none" font-family="Arial" font-size="24px" font-style="normal" font-weight="normal" text-decoration="none" x="800" y="60">UNREGISTERED</text><text fill="#eeeeee" stroke="none" font-family="Arial" font-size="24px" font-style="normal" font-weight="normal" text-decoration="none" x="800" y="90">UNREGISTERED</text><text fill="#eeeeee" stroke="none" font-family="Arial" font-size="24px" font-style="normal" font-weight="normal" text-decoration="none" x="800" y="120">UNREGISTERED</text><text fill="#eeeeee" stroke="none" font-family="Arial" font-size="24px" font-style="normal" font-weight="normal" text-decoration="none" x="800" y="150">UNREGISTERED</text><text fill="#eeeeee" stroke="none" font-family="Arial" font-size="24px" font-style="normal" font-weight="normal" text-decoration="none" x="800" y="180">UNREGISTERED</text><text fill="#eeeeee" stroke="none" font-family="Arial" font-size="24px" font-style="normal" font-weight="normal" text-decoration="none" x="800" y="210">UNREGISTERED</text><text fill="#eeeeee" stroke="none" font-family="Arial" font-size="24px" font-style="normal" font-weight="normal" text-decoration="none" x="800" y="240">UNREGISTERED</text><text fill="#eeeeee" stroke="none" font-family="Arial" font-size="24px" font-style="normal" font-weight="normal" text-decoration="none" x="800" y="270">UNREGISTERED</text><text fill="#eeeeee" stroke="none" font-family="Arial" font-size="24px" font-style="normal" font-weight="normal" text-decoration="none" x="800" y="300">UNREGISTERED</text><text fill="#eeeeee" stroke="none" font-family="Arial" font-size="24px" font-style="normal" font-weight="normal" text-decoration="none" x="800" y="330">UNREGISTERED</text><text fill="#eeeeee" stroke="none" font-family="Arial" font-size="24px" font-style="normal" font-weight="normal" text-decoration="none" x="800" y="360">UNREGISTERED</text><text fill="#eeeeee" stroke="none" font-family="Arial" font-size="24px" font-style="normal" font-weight="normal" text-decoration="none" x="800" y="390">UNREGISTERED</text><text fill="#eeeeee" stroke="none" font-family="Arial" font-size="24px" font-style="normal" font-weight="normal" text-decoration="none" x="800" y="420">UNREGISTERED</text><text fill="#eeeeee" stroke="none" font-family="Arial" font-size="24px" font-style="normal" font-weight="normal" text-decoration="none" x="800" y="450">UNREGISTERED</text><text fill="#eeeeee" stroke="none" font-family="Arial" font-size="24px" font-style="normal" font-weight="normal" text-decoration="none" x="800" y="480">UNREGISTERED</text><text fill="#eeeeee" stroke="none" font-family="Arial" font-size="24px" font-style="normal" font-weight="normal" text-decoration="none" x="800" y="510">UNREGISTERED</text><text fill="#eeeeee" stroke="none" font-family="Arial" font-size="24px" font-style="normal" font-weight="normal" text-decoration="none" x="800" y="540">UNREGISTERED</text><text fill="#eeeeee" stroke="none" font-family="Arial" font-size="24px" font-style="normal" font-weight="normal" text-decoration="none" x="800" y="570">UNREGISTERED</text><text fill="#eeeeee" stroke="none" font-family="Arial" font-size="24px" font-style="normal" font-weight="normal" text-decoration="none" x="800" y="600">UNREGISTERED</text><text fill="#eeeeee" stroke="none" font-family="Arial" font-size="24px" font-style="normal" font-weight="normal" text-decoration="none" x="800" y="630">UNREGISTERED</text><text fill="#eeeeee" stroke="none" font-family="Arial" font-size="24px" font-style="normal" font-weight="normal" text-decoration="none" x="800" y="660">UNREGISTERED</text><text fill="#eeeeee" stroke="none" font-family="Arial" font-size="24px" font-style="normal" font-weight="normal" text-decoration="none" x="800" y="690">UNREGISTERED</text><text fill="#eeeeee" stroke="none" font-family="Arial" font-size="24px" font-style="normal" font-weight="normal" text-decoration="none" x="800" y="720">UNREGISTERED</text><text fill="#eeeeee" stroke="none" font-family="Arial" font-size="24px" font-style="normal" font-weight="normal" text-decoration="none" x="800" y="750">UNREGISTERED</text><text fill="#eeeeee" stroke="none" font-family="Arial" font-size="24px" font-style="normal" font-weight="normal" text-decoration="none" x="800" y="780">UNREGISTERED</text><text fill="#eeeeee" stroke="none" font-family="Arial" font-size="24px" font-style="normal" font-weight="normal" text-decoration="none" x="800" y="810">UNREGISTERED</text><text fill="#eeeeee" stroke="none" font-family="Arial" font-size="24px" font-style="normal" font-weight="normal" text-decoration="none" x="1000" y="0">UNREGISTERED</text><text fill="#eeeeee" stroke="none" font-family="Arial" font-size="24px" font-style="normal" font-weight="normal" text-decoration="none" x="1000" y="30">UNREGISTERED</text><text fill="#eeeeee" stroke="none" font-family="Arial" font-size="24px" font-style="normal" font-weight="normal" text-decoration="none" x="1000" y="60">UNREGISTERED</text><text fill="#eeeeee" stroke="none" font-family="Arial" font-size="24px" font-style="normal" font-weight="normal" text-decoration="none" x="1000" y="90">UNREGISTERED</text><text fill="#eeeeee" stroke="none" font-family="Arial" font-size="24px" font-style="normal" font-weight="normal" text-decoration="none" x="1000" y="120">UNREGISTERED</text><text fill="#eeeeee" stroke="none" font-family="Arial" font-size="24px" font-style="normal" font-weight="normal" text-decoration="none" x="1000" y="150">UNREGISTERED</text><text fill="#eeeeee" stroke="none" font-family="Arial" font-size="24px" font-style="normal" font-weight="normal" text-decoration="none" x="1000" y="180">UNREGISTERED</text><text fill="#eeeeee" stroke="none" font-family="Arial" font-size="24px" font-style="normal" font-weight="normal" text-decoration="none" x="1000" y="210">UNREGISTERED</text><text fill="#eeeeee" stroke="none" font-family="Arial" font-size="24px" font-style="normal" font-weight="normal" text-decoration="none" x="1000" y="240">UNREGISTERED</text><text fill="#eeeeee" stroke="none" font-family="Arial" font-size="24px" font-style="normal" font-weight="normal" text-decoration="none" x="1000" y="270">UNREGISTERED</text><text fill="#eeeeee" stroke="none" font-family="Arial" font-size="24px" font-style="normal" font-weight="normal" text-decoration="none" x="1000" y="300">UNREGISTERED</text><text fill="#eeeeee" stroke="none" font-family="Arial" font-size="24px" font-style="normal" font-weight="normal" text-decoration="none" x="1000" y="330">UNREGISTERED</text><text fill="#eeeeee" stroke="none" font-family="Arial" font-size="24px" font-style="normal" font-weight="normal" text-decoration="none" x="1000" y="360">UNREGISTERED</text><text fill="#eeeeee" stroke="none" font-family="Arial" font-size="24px" font-style="normal" font-weight="normal" text-decoration="none" x="1000" y="390">UNREGISTERED</text><text fill="#eeeeee" stroke="none" font-family="Arial" font-size="24px" font-style="normal" font-weight="normal" text-decoration="none" x="1000" y="420">UNREGISTERED</text><text fill="#eeeeee" stroke="none" font-family="Arial" font-size="24px" font-style="normal" font-weight="normal" text-decoration="none" x="1000" y="450">UNREGISTERED</text><text fill="#eeeeee" stroke="none" font-family="Arial" font-size="24px" font-style="normal" font-weight="normal" text-decoration="none" x="1000" y="480">UNREGISTERED</text><text fill="#eeeeee" stroke="none" font-family="Arial" font-size="24px" font-style="normal" font-weight="normal" text-decoration="none" x="1000" y="510">UNREGISTERED</text><text fill="#eeeeee" stroke="none" font-family="Arial" font-size="24px" font-style="normal" font-weight="normal" text-decoration="none" x="1000" y="540">UNREGISTERED</text><text fill="#eeeeee" stroke="none" font-family="Arial" font-size="24px" font-style="normal" font-weight="normal" text-decoration="none" x="1000" y="570">UNREGISTERED</text><text fill="#eeeeee" stroke="none" font-family="Arial" font-size="24px" font-style="normal" font-weight="normal" text-decoration="none" x="1000" y="600">UNREGISTERED</text><text fill="#eeeeee" stroke="none" font-family="Arial" font-size="24px" font-style="normal" font-weight="normal" text-decoration="none" x="1000" y="630">UNREGISTERED</text><text fill="#eeeeee" stroke="none" font-family="Arial" font-size="24px" font-style="normal" font-weight="normal" text-decoration="none" x="1000" y="660">UNREGISTERED</text><text fill="#eeeeee" stroke="none" font-family="Arial" font-size="24px" font-style="normal" font-weight="normal" text-decoration="none" x="1000" y="690">UNREGISTERED</text><text fill="#eeeeee" stroke="none" font-family="Arial" font-size="24px" font-style="normal" font-weight="normal" text-decoration="none" x="1000" y="720">UNREGISTERED</text><text fill="#eeeeee" stroke="none" font-family="Arial" font-size="24px" font-style="normal" font-weight="normal" text-decoration="none" x="1000" y="750">UNREGISTERED</text><text fill="#eeeeee" stroke="none" font-family="Arial" font-size="24px" font-style="normal" font-weight="normal" text-decoration="none" x="1000" y="780">UNREGISTERED</text><text fill="#eeeeee" stroke="none" font-family="Arial" font-size="24px" font-style="normal" font-weight="normal" text-decoration="none" x="1000" y="810">UNREGISTERED</text><g transform="translate(-150,-62) scale(1,1)"><rect fill="#C0C0C0" stroke="none" x="167" y="79" width="968" height="817" opacity="0.2"/></g><g transform="translate(-150,-62) scale(1,1)"><rect fill="#ffffff" stroke="none" x="160" y="72" width="968" height="817"/></g><g transform="translate(-150,-62) scale(1,1)"><path fill="none" stroke="#000000" d="M 160 72 L 1128 72 L 1128 889 L 160 889 L 160 72 Z Z" stroke-miterlimit="10"/></g><g transform="translate(-150,-62) scale(1,1)"><g><path fill="none" stroke="none"/><text fill="#000000" stroke="none" font-family="Arial" font-size="13px" font-style="normal" font-weight="bold" text-decoration="none" x="590.289306640625" y="91.5">Loja Virtual Scrolls</text></g></g><g transform="translate(-150,-62) scale(1,1)"><path fill="#ffffff" stroke="none" d="M 1191.4916257102273 410.68 C 1191.4916257102273 405.886167936 1195.3774680351728 402 1200.1708984375 402 C 1204.9643288398272 402 1208.8501711647727 405.886167936 1208.8501711647727 410.68 C 1208.8501711647727 415.473832064 1204.9643288398272 419.36 1200.1708984375 419.36 C 1195.3774680351728 419.36 1191.4916257102273 415.473832064 1191.4916257102273 410.68 Z"/></g><g transform="translate(-150,-62) scale(1,1)"><path fill="none" stroke="#000000" d="M 1191.4916257102273 410.68 C 1191.4916257102273 405.886167936 1195.3774680351728 402 1200.1708984375 402 C 1204.9643288398272 402 1208.8501711647727 405.886167936 1208.8501711647727 410.68 C 1208.8501711647727 415.473832064 1204.9643288398272 419.36 1200.1708984375 419.36 C 1195.3774680351728 419.36 1191.4916257102273 415.473832064 1191.4916257102273 410.68 Z" stroke-miterlimit="10"/></g><g transform="translate(-150,-62) scale(1,1)"><path fill="none" stroke="#000000" d="M 1200.1708984375 419.36 L 1200.1708984375 436.64" stroke-miterlimit="10"/></g><g transform="translate(-150,-62) scale(1,1)"><path fill="none" stroke="#000000" d="M 1190.9810802556817 425.84 L 1209.3607166193183 425.84" stroke-miterlimit="10"/></g><g transform="translate(-150,-62) scale(1,1)"><path fill="none" stroke="#000000" d="M 1200.1708984375 436.64 L 1187.4072620738636 454" stroke-miterlimit="10"/></g><g transform="translate(-150,-62) scale(1,1)"><path fill="none" stroke="#000000" d="M 1200.1708984375 436.64 L 1212.9345348011364 454" stroke-miterlimit="10"/></g><g transform="translate(-150,-62) scale(1,1)"><g><path fill="none" stroke="none"/><text fill="#000000" stroke="none" font-family="Arial" font-size="13px" font-style="normal" font-weight="bold" text-decoration="none" x="1179.937744140625" y="474.5">Cliente</text></g></g><g transform="translate(-150,-62) scale(1,1)"><path fill="#C0C0C0" stroke="none" d="M 823 167 C 823 149.3268864 860.6080768 135 907 135 C 953.3919232 135 991 149.3268864 991 167 C 991 184.6731136 953.3919232 199 907 199 C 860.6080768 199 823 184.6731136 823 167 Z" opacity="0.2"/></g><g transform="translate(-150,-62) scale(1,1)"><path fill="#ffffff" stroke="none" d="M 816 160 C 816 142.3268864 853.6080768 128 900 128 C 946.3919232 128 984 142.3268864 984 160 C 984 177.6731136 946.3919232 192 900 192 C 853.6080768 192 816 177.6731136 816 160 Z"/></g><g transform="translate(-150,-62) scale(1,1)"><path fill="none" stroke="#000000" d="M 816 160 C 816 142.3268864 853.6080768 128 900 128 C 946.3919232 128 984 142.3268864 984 160 C 984 177.6731136 946.3919232 192 900 192 C 853.6080768 192 816 177.6731136 816 160 Z" stroke-miterlimit="10"/></g><g transform="translate(-150,-62) scale(1,1)"><g><path fill="none" stroke="none"/><text fill="#000000" stroke="none" font-family="Arial" font-size="13px" font-style="normal" font-weight="bold" text-decoration="none" x="871.4609375" y="167">Cadastrar</text></g></g><g transform="translate(-150,-62) scale(1,1)"><path fill="#C0C0C0" stroke="none" d="M 835 852 C 835 834.3268864 862.5344848 820 896.5 820 C 930.4655152 820 958 834.3268864 958 852 C 958 869.6731136 930.4655152 884 896.5 884 C 862.5344848 884 835 869.6731136 835 852 Z" opacity="0.2"/></g><g transform="translate(-150,-62) scale(1,1)"><path fill="#ffffff" stroke="none" d="M 828 845 C 828 827.3268864 855.5344848 813 889.5 813 C 923.4655152 813 951 827.3268864 951 845 C 951 862.6731136 923.4655152 877 889.5 877 C 855.5344848 877 828 862.6731136 828 845 Z"/></g><g transform="translate(-150,-62) scale(1,1)"><path fill="none" stroke="#000000" d="M 828 845 C 828 827.3268864 855.5344848 813 889.5 813 C 923.4655152 813 951 827.3268864 951 845 C 951 862.6731136 923.4655152 877 889.5 877 C 855.5344848 877 828 862.6731136 828 845 Z" stroke-miterlimit="10"/></g><g transform="translate(-150,-62) scale(1,1)"><g><path fill="none" stroke="none"/><text fill="#000000" stroke="none" font-family="Arial" font-size="13px" font-style="normal" font-weight="bold" text-decoration="none" x="873.595947265625" y="852">Login</text></g></g><g transform="translate(-150,-62) scale(1,1)"><path fill="#C0C0C0" stroke="none" d="M 685 356 C 685 338.3268864 718.8024976 324 760.5 324 C 802.1975024 324 836 338.3268864 836 356 C 836 373.6731136 802.1975024 388 760.5 388 C 718.8024976 388 685 373.6731136 685 356 Z" opacity="0.2"/></g><g transform="translate(-150,-62) scale(1,1)"><path fill="#ffffff" stroke="none" d="M 678 349 C 678 331.3268864 711.8024976 317 753.5 317 C 795.1975024 317 829 331.3268864 829 349 C 829 366.6731136 795.1975024 381 753.5 381 C 711.8024976 381 678 366.6731136 678 349 Z"/></g><g transform="translate(-150,-62) scale(1,1)"><path fill="none" stroke="#000000" d="M 678 349 C 678 331.3268864 711.8024976 317 753.5 317 C 795.1975024 317 829 331.3268864 829 349 C 829 366.6731136 795.1975024 381 753.5 381 C 711.8024976 381 678 366.6731136 678 349 Z" stroke-miterlimit="10"/></g><g transform="translate(-150,-62) scale(1,1)"><g><path fill="none" stroke="none"/><text fill="#000000" stroke="none" font-family="Arial" font-size="13px" font-style="normal" font-weight="bold" text-decoration="none" x="707.619140625" y="356">Efetuar Compra</text></g></g><g transform="translate(-150,-62) scale(1,1)"><path fill="#C0C0C0" stroke="none" d="M 623 479 C 623 461.3268864 661.5035072000001 447 709 447 C 756.4964927999999 447 795 461.3268864 795 479 C 795 496.6731136 756.4964927999999 511 709 511 C 661.5035072000001 511 623 496.6731136 623 479 Z" opacity="0.2"/></g><g transform="translate(-150,-62) scale(1,1)"><path fill="#ffffff" stroke="none" d="M 616 472 C 616 454.3268864 654.5035072000001 440 702 440 C 749.4964927999999 440 788 454.3268864 788 472 C 788 489.6731136 749.4964927999999 504 702 504 C 654.5035072000001 504 616 489.6731136 616 472 Z"/></g><g transform="translate(-150,-62) scale(1,1)"><path fill="none" stroke="#000000" d="M 616 472 C 616 454.3268864 654.5035072000001 440 702 440 C 749.4964927999999 440 788 454.3268864 788 472 C 788 489.6731136 749.4964927999999 504 702 504 C 654.5035072000001 504 616 489.6731136 616 472 Z" stroke-miterlimit="10"/></g><g transform="translate(-150,-62) scale(1,1)"><g><path fill="none" stroke="none"/><text fill="#000000" stroke="none" font-family="Arial" font-size="13px" font-style="normal" font-weight="bold" text-decoration="none" x="649.977783203125" y="479">Atualizar Carrinho</text></g></g><g transform="translate(-150,-62) scale(1,1)"><path fill="#C0C0C0" stroke="none" d="M 389 364 C 389 346.3268864 422.3547824 332 463.5 332 C 504.6452176 332 538 346.3268864 538 364 C 538 381.6731136 504.6452176 396 463.5 396 C 422.3547824 396 389 381.6731136 389 364 Z" opacity="0.2"/></g><g transform="translate(-150,-62) scale(1,1)"><path fill="#ffffff" stroke="none" d="M 382 357 C 382 339.3268864 415.3547824 325 456.5 325 C 497.6452176 325 531 339.3268864 531 357 C 531 374.6731136 497.6452176 389 456.5 389 C 415.3547824 389 382 374.6731136 382 357 Z"/></g><g transform="translate(-150,-62) scale(1,1)"><path fill="none" stroke="#000000" d="M 382 357 C 382 339.3268864 415.3547824 325 456.5 325 C 497.6452176 325 531 339.3268864 531 357 C 531 374.6731136 497.6452176 389 456.5 389 C 415.3547824 389 382 374.6731136 382 357 Z" stroke-miterlimit="10"/></g><g transform="translate(-150,-62) scale(1,1)"><g><path fill="none" stroke="none"/><text fill="#000000" stroke="none" font-family="Arial" font-size="13px" font-style="normal" font-weight="bold" text-decoration="none" x="412.177490234375" y="364">Avaliar Produto</text></g></g><g transform="translate(-150,-62) scale(1,1)"><path fill="#C0C0C0" stroke="none" d="M 814 700 C 814 682.3268864 850.7126464 668 896 668 C 941.2873536 668 978 682.3268864 978 700 C 978 717.6731136 941.2873536 732 896 732 C 850.7126464 732 814 717.6731136 814 700 Z" opacity="0.2"/></g><g transform="translate(-150,-62) scale(1,1)"><path fill="#ffffff" stroke="none" d="M 807 693 C 807 675.3268864 843.7126464 661 889 661 C 934.2873536 661 971 675.3268864 971 693 C 971 710.6731136 934.2873536 725 889 725 C 843.7126464 725 807 710.6731136 807 693 Z"/></g><g transform="translate(-150,-62) scale(1,1)"><path fill="none" stroke="#000000" d="M 807 693 C 807 675.3268864 843.7126464 661 889 661 C 934.2873536 661 971 675.3268864 971 693 C 971 710.6731136 934.2873536 725 889 725 C 843.7126464 725 807 710.6731136 807 693 Z" stroke-miterlimit="10"/></g><g transform="translate(-150,-62) scale(1,1)"><g><path fill="none" stroke="none"/><text fill="#000000" stroke="none" font-family="Arial" font-size="13px" font-style="normal" font-weight="bold" text-decoration="none" x="839.5009765625" y="700">Configurar Conta</text></g></g><g transform="translate(-150,-62) scale(1,1)"><path fill="none" stroke="#000000" d="M 935 193 L 1173 415" stroke-miterlimit="10"/></g><g transform="translate(-150,-62) scale(1,1)"><path fill="none" stroke="#000000" d="M 914 812 L 1173 475" stroke-miterlimit="10"/></g><g transform="translate(-150,-62) scale(1,1)"><path fill="none" stroke="#000000" d="M 830 365 L 1173 435" stroke-miterlimit="10"/></g><g transform="translate(-150,-62) scale(1,1)"><path fill="none" stroke="#000000" d="M 789 466 L 1173 442" stroke-miterlimit="10"/></g><g transform="translate(-150,-62) scale(1,1)"><path fill="none" stroke="#000000" d="M 930 660 L 1173 462" stroke-miterlimit="10"/></g><g transform="translate(-150,-62) scale(1,1)"><path fill="none" stroke="#000000" d="M 532 355 L 677 351" stroke-miterlimit="10" stroke-dasharray="3"/></g><g transform="translate(-150,-62) scale(1,1)"><path fill="none" stroke="#000000" d="M 666.957270296094 355.4881599898269 L 677 351 L 666.7251093608877 347.0723260886012" stroke-miterlimit="10"/></g><g transform="translate(-150,-62) scale(1,1)"><g><path fill="none" stroke="none"/><text fill="#000000" stroke="none" font-family="Arial" font-size="13px" font-style="normal" font-weight="normal" text-decoration="none" x="559.5" y="342.5">«extend»</text></g></g><g transform="translate(-150,-62) scale(1,1)"><path fill="none" stroke="#000000" d="M 739 382 L 716 439" stroke-miterlimit="10" stroke-dasharray="3"/></g><g transform="translate(-150,-62) scale(1,1)"><path fill="none" stroke="#000000" d="M 715.8991141912338 428.0004626436568 L 716 439 L 723.706510415081 431.15081550591094" stroke-miterlimit="10"/></g><g transform="translate(-150,-62) scale(1,1)"><g><path fill="none" stroke="none"/><text fill="#000000" stroke="none" font-family="Arial" font-size="13px" font-style="normal" font-weight="normal" text-decoration="none" x="662.5" y="419.5">«include»</text></g></g><g transform="translate(-150,-62) scale(1,1)"><path fill="#C0C0C0" stroke="none" d="M 743 575 C 743 557.3268864 801.8745488 543 874.5 543 C 947.1254512 543 1006 557.3268864 1006 575 C 1006 592.6731136 947.1254512 607 874.5 607 C 801.8745488 607 743 592.6731136 743 575 Z" opacity="0.2"/></g><g transform="translate(-150,-62) scale(1,1)"><path fill="#ffffff" stroke="none" d="M 736 568 C 736 550.3268864 794.8745488 536 867.5 536 C 940.1254512 536 999 550.3268864 999 568 C 999 585.6731136 940.1254512 600 867.5 600 C 794.8745488 600 736 585.6731136 736 568 Z"/></g><g transform="translate(-150,-62) scale(1,1)"><path fill="none" stroke="#000000" d="M 736 568 C 736 550.3268864 794.8745488 536 867.5 536 C 940.1254512 536 999 550.3268864 999 568 C 999 585.6731136 940.1254512 600 867.5 600 C 794.8745488 600 736 585.6731136 736 568 Z" stroke-miterlimit="10"/></g><g transform="translate(-150,-62) scale(1,1)"><g><path fill="none" stroke="none"/><text fill="#000000" stroke="none" font-family="Arial" font-size="13px" font-style="normal" font-weight="bold" text-decoration="none" x="785.116943359375" y="575">Acompanhar Status Pedidos</text></g></g><g transform="translate(-150,-62) scale(1,1)"><path fill="none" stroke="#000000" d="M 953 535 L 1173 450" stroke-miterlimit="10"/></g><g transform="translate(-150,-62) scale(1,1)"><path fill="#C0C0C0" stroke="none" d="M 391 455 C 391 437.3268864 419.4299152 423 454.5 423 C 489.5700848 423 518 437.3268864 518 455 C 518 472.6731136 489.5700848 487 454.5 487 C 419.4299152 487 391 472.6731136 391 455 Z" opacity="0.2"/></g><g transform="translate(-150,-62) scale(1,1)"><path fill="#ffffff" stroke="none" d="M 384 448 C 384 430.3268864 412.4299152 416 447.5 416 C 482.5700848 416 511 430.3268864 511 448 C 511 465.6731136 482.5700848 480 447.5 480 C 412.4299152 480 384 465.6731136 384 448 Z"/></g><g transform="translate(-150,-62) scale(1,1)"><path fill="none" stroke="#000000" d="M 384 448 C 384 430.3268864 412.4299152 416 447.5 416 C 482.5700848 416 511 430.3268864 511 448 C 511 465.6731136 482.5700848 480 447.5 480 C 412.4299152 480 384 465.6731136 384 448 Z" stroke-miterlimit="10"/></g><g transform="translate(-150,-62) scale(1,1)"><g><path fill="none" stroke="none"/><text fill="#000000" stroke="none" font-family="Arial" font-size="13px" font-style="normal" font-weight="bold" text-decoration="none" x="411.004150390625" y="455">Pagar Conta</text></g></g><g transform="translate(-150,-62) scale(1,1)"><path fill="none" stroke="#000000" d="M 677 374 L 512 427" stroke-miterlimit="10" stroke-dasharray="3"/></g><g transform="translate(-150,-62) scale(1,1)"><path fill="none" stroke="#000000" d="M 520.3884018840369 419.88419267883916 L 512 427 L 522.9631314659302 427.8998602451108" stroke-miterlimit="10"/></g><g transform="translate(-150,-62) scale(1,1)"><g><path fill="none" stroke="none"/><text fill="#000000" stroke="none" font-family="Arial" font-size="13px" font-style="normal" font-weight="normal" text-decoration="none" x="551.5" y="430.5">«include»</text></g></g><g transform="translate(-150,-62) scale(1,1)"><path fill="none" stroke="#000000" d="M 889 812 L 889 726" stroke-miterlimit="10" stroke-dasharray="3"/></g><g transform="translate(-150,-62) scale(1,1)"><path fill="none" stroke="#000000" d="M 893.209517756016 736.1626748576241 L 889 726 L 884.790482243984 736.1626748576241" stroke-miterlimit="10"/></g><g transform="translate(-150,-62) scale(1,1)"><g><path fill="none" stroke="none"/><text fill="#000000" stroke="none" font-family="Arial" font-size="13px" font-style="normal" font-weight="normal" text-decoration="none" x="820.5" y="774.5">«extend»</text></g></g><g transform="translate(-150,-62) scale(1,1)"><path fill="#C0C0C0" stroke="none" d="M 335 167 C 335 149.3268864 367.0116368 135 406.5 135 C 445.9883632 135 478 149.3268864 478 167 C 478 184.6731136 445.9883632 199 406.5 199 C 367.0116368 199 335 184.6731136 335 167 Z" opacity="0.2"/></g><g transform="translate(-150,-62) scale(1,1)"><path fill="#ffffff" stroke="none" d="M 328 160 C 328 142.3268864 360.0116368 128 399.5 128 C 438.9883632 128 471 142.3268864 471 160 C 471 177.6731136 438.9883632 192 399.5 192 C 360.0116368 192 328 177.6731136 328 160 Z"/></g><g transform="translate(-150,-62) scale(1,1)"><path fill="none" stroke="#000000" d="M 328 160 C 328 142.3268864 360.0116368 128 399.5 128 C 438.9883632 128 471 142.3268864 471 160 C 471 177.6731136 438.9883632 192 399.5 192 C 360.0116368 192 328 177.6731136 328 160 Z" stroke-miterlimit="10"/></g><g transform="translate(-150,-62) scale(1,1)"><g><path fill="none" stroke="none"/><text fill="#000000" stroke="none" font-family="Arial" font-size="13px" font-style="normal" font-weight="bold" text-decoration="none" x="356.504150390625" y="167">Buscar Banner</text></g></g><g transform="translate(-150,-62) scale(1,1)"><path fill="none" stroke="#000000" d="M 1173 431 L 472 186" stroke-miterlimit="10"/></g><g transform="translate(-150,-62) scale(1,1)"><path fill="#C0C0C0" stroke="none" d="M 231 679 C 231 661.3268864 266.81721600000003 647 311 647 C 355.18278399999997 647 391 661.3268864 391 679 C 391 696.6731136 355.18278399999997 711 311 711 C 266.81721600000003 711 231 696.6731136 231 679 Z" opacity="0.2"/></g><g transform="translate(-150,-62) scale(1,1)"><path fill="#ffffff" stroke="none" d="M 224 672 C 224 654.3268864 259.81721600000003 640 304 640 C 348.18278399999997 640 384 654.3268864 384 672 C 384 689.6731136 348.18278399999997 704 304 704 C 259.81721600000003 704 224 689.6731136 224 672 Z"/></g><g transform="translate(-150,-62) scale(1,1)"><path fill="none" stroke="#000000" d="M 224 672 C 224 654.3268864 259.81721600000003 640 304 640 C 348.18278399999997 640 384 654.3268864 384 672 C 384 689.6731136 348.18278399999997 704 304 704 C 259.81721600000003 704 224 689.6731136 224 672 Z" stroke-miterlimit="10"/></g><g transform="translate(-150,-62) scale(1,1)"><g><path fill="none" stroke="none"/><text fill="#000000" stroke="none" font-family="Arial" font-size="13px" font-style="normal" font-weight="bold" text-decoration="none" x="255.21826171875" y="679">Scanear Produto</text></g></g><g transform="translate(-150,-62) scale(1,1)"><path fill="none" stroke="#000000" d="M 393 193 L 310 639" stroke-miterlimit="10" stroke-dasharray="3"/></g><g transform="translate(-150,-62) scale(1,1)"><path fill="none" stroke="#000000" d="M 307.7208726279474 628.238699965991 L 310 639 L 315.9978018084645 629.779025351603" stroke-miterlimit="10"/></g><g transform="translate(-150,-62) scale(1,1)"><g><path fill="none" stroke="none"/><text fill="#000000" stroke="none" font-family="Arial" font-size="13px" font-style="normal" font-weight="normal" text-decoration="none" x="287.5" y="416.5">«extend»</text></g></g><g transform="translate(-150,-62) scale(1,1)"><path fill="none" stroke="#000000" d="M 370 639 L 636 505" stroke-miterlimit="10" stroke-dasharray="3"/></g><g transform="translate(-150,-62) scale(1,1)"><path fill="none" stroke="#000000" d="M 628.8177681651963 513.3315992385095 L 636 505 L 625.0300648458776 505.81272548523515" stroke-miterlimit="10"/></g><g transform="translate(-150,-62) scale(1,1)"><g><path fill="none" stroke="none"/><text fill="#000000" stroke="none" font-family="Arial" font-size="13px" font-style="normal" font-weight="normal" text-decoration="none" x="461.5" y="551.5">«include»</text></g></g><g transform="translate(-150,-62) scale(1,1)"><path fill="none" stroke="#000000" d="M 850 535 L 770 382" stroke-miterlimit="10" stroke-dasharray="3"/></g><g transform="translate(-150,-62) scale(1,1)"><path fill="none" stroke="#000000" d="M 778.4393067760294 389.05535974561644 L 770 382 L 770.9785983300079 392.9563837696799" stroke-miterlimit="10"/></g><g transform="translate(-150,-62) scale(1,1)"><g><path fill="none" stroke="none"/><text fill="#000000" stroke="none" font-family="Arial" font-size="13px" font-style="normal" font-weight="normal" text-decoration="none" x="807.5" y="436.5">«extend»</text></g></g></g></svg>